# Blender 4.1.1
# www.blender.org
mtllib temp_err.mtl
o Cube
v -0.400000 -1.000000 1.000000
v -0.400000 1.000000 1.000000
v -0.400000 -1.000000 0.200000
v -0.400000 1.000000 0.200000
v 0.400000 -1.000000 1.000000
v 0.400000 1.000000 1.000000
v 0.400000 -1.000000 0.200000
v 0.400000 1.000000 0.200000
v -0.400000 1.800000 1.000000
v -0.400000 1.800000 0.200000
v 0.400000 1.800000 0.200000
v 0.400000 1.800000 1.000000
v -0.400000 -1.800000 0.200000
v -0.400000 -1.800000 1.000000
v 0.400000 -1.800000 0.200000
v 0.400000 -1.800000 1.000000
v -0.400000 0.400000 1.000000
v -0.400000 0.400000 0.200000
v 0.400000 0.400000 0.200000
v 0.400000 0.400000 1.000000
v -0.400000 -0.300000 0.200000
v 0.400000 -0.300000 0.200000
v 0.400000 -0.300000 1.000000
v -0.400000 -0.300000 1.000000
v -0.400000 1.000000 -1.400000
v 0.400000 1.000000 -1.400000
v -0.400000 1.800000 -1.400000
v 0.400000 1.800000 -1.400000
v -0.400000 0.400000 -1.400000
v 0.400000 0.400000 -1.400000
v -0.400000 -0.300000 -1.400000
v 0.400000 -0.300000 -1.400000
v 0.400000 -1.000000 -1.400000
v -0.400000 -1.000000 -1.400000
v 0.400000 -1.800000 -1.400000
v -0.400000 -1.800000 -1.400000
vn -1.0000 -0.0000 -0.0000
vn -0.0000 -0.0000 -1.0000
vn 1.0000 -0.0000 -0.0000
vn -0.0000 -0.0000 1.0000
vn -0.0000 1.0000 -0.0000
vn -0.0000 -1.0000 -0.0000
vt 0.625000 0.000000
vt 0.550000 0.250000
vt 0.550000 0.000000
vt 0.625000 0.250000
vt 0.550000 0.500000
vt 0.625000 0.500000
vt 0.550000 0.750000
vt 0.625000 0.750000
vt 0.550000 1.000000
vt 0.375000 0.250000
vt 0.375000 0.000000
vt 0.875000 0.500000
vt 0.625000 1.000000
vt 0.375000 0.500000
vt 0.125000 0.750000
vt 0.125000 0.500000
vt 0.375000 0.750000
vt 0.375000 1.000000
vt 0.462500 1.000000
vt 0.462500 0.750000
vt 0.462500 0.500000
vt 0.462500 0.250000
vt 0.462500 0.000000
vt 0.875000 0.750000
s 0
f 2/1/1 18/2/1 17/3/1
f 4/4/2 19/5/2 18/2/2
f 8/6/3 20/7/3 19/5/3
f 6/8/4 17/9/4 20/7/4
f 3/10/1 14/11/1 1/11/1
f 2/1/1 10/4/1 4/4/1
f 10/12/5 12/8/5 11/6/5
f 6/8/4 9/13/4 2/13/4
f 11/6/5 27/12/5 10/12/5
f 8/6/3 12/8/3 6/8/3
f 15/14/6 14/15/6 13/16/6
f 5/17/3 15/14/3 7/14/3
f 1/18/4 16/17/4 5/17/4
f 3/10/1 36/10/1 13/10/1
f 20/7/4 24/19/4 23/20/4
f 19/5/3 23/20/3 22/21/3
f 18/2/1 31/22/1 21/22/1
f 24/23/1 18/2/1 21/22/1
f 24/23/1 3/10/1 1/11/1
f 21/22/2 7/14/2 3/10/2
f 22/21/3 5/17/3 7/14/3
f 23/20/4 1/18/4 5/17/4
f 25/4/2 28/6/2 26/6/2
f 4/4/6 26/6/6 8/6/6
f 8/6/3 28/6/3 11/6/3
f 10/4/1 25/4/1 4/4/1
f 29/2/2 32/21/2 31/22/2
f 19/5/5 29/2/5 18/2/5
f 21/22/6 32/21/6 22/21/6
f 22/21/3 30/5/3 19/5/3
f 33/14/2 36/10/2 34/10/2
f 15/14/3 33/14/3 7/14/3
f 13/16/6 35/14/6 15/14/6
f 7/14/5 34/10/5 3/10/5
f 2/1/1 4/4/1 18/2/1
f 4/4/2 8/6/2 19/5/2
f 8/6/3 6/8/3 20/7/3
f 6/8/4 2/13/4 17/9/4
f 3/10/1 13/10/1 14/11/1
f 2/1/1 9/1/1 10/4/1
f 10/12/5 9/24/5 12/8/5
f 6/8/4 12/8/4 9/13/4
f 11/6/5 28/6/5 27/12/5
f 8/6/3 11/6/3 12/8/3
f 15/14/6 16/17/6 14/15/6
f 5/17/3 16/17/3 15/14/3
f 1/18/4 14/18/4 16/17/4
f 3/10/1 34/10/1 36/10/1
f 20/7/4 17/9/4 24/19/4
f 19/5/3 20/7/3 23/20/3
f 18/2/1 29/2/1 31/22/1
f 24/23/1 17/3/1 18/2/1
f 24/23/1 21/22/1 3/10/1
f 21/22/2 22/21/2 7/14/2
f 22/21/3 23/20/3 5/17/3
f 23/20/4 24/19/4 1/18/4
f 25/4/2 27/4/2 28/6/2
f 4/4/6 25/4/6 26/6/6
f 8/6/3 26/6/3 28/6/3
f 10/4/1 27/4/1 25/4/1
f 29/2/2 30/5/2 32/21/2
f 19/5/5 30/5/5 29/2/5
f 21/22/6 31/22/6 32/21/6
f 22/21/3 32/21/3 30/5/3
f 33/14/2 35/14/2 36/10/2
f 15/14/3 35/14/3 33/14/3
f 13/16/6 36/16/6 35/14/6
f 7/14/5 33/14/5 34/10/5
